<svg xmlns="http://www.w3.org/2000/svg" viewBox="0 0 360 360"><defs><linearGradient id="a" x1="288" y1="466.6" x2="288" y2="115.76" gradientUnits="userSpaceOnUse"><stop offset="0" stop-color="#fa233b"/><stop offset="1" stop-color="#fb5c74"/></linearGradient></defs><path d="M468 220.61v-12.9c0-3.62-.07-7.24-.17-10.86a157.53 157.53 0 0 0-2.07-23.64 80.2 80.2 0 0 0-7.41-22.49 75.64 75.64 0 0 0-33.06-33 79.63 79.63 0 0 0-22.47-7.4 156.37 156.37 0 0 0-23.65-2.08c-3.62-.1-7.24-.14-10.86-.17H207.71c-3.62 0-7.24.07-10.86.17a156.37 156.37 0 0 0-23.65 2.08 79.63 79.63 0 0 0-22.47 7.4 75.64 75.64 0 0 0-33.06 33.05 80.2 80.2 0 0 0-7.41 22.49 157.53 157.53 0 0 0-2.07 23.64c-.1 3.62-.14 7.24-.17 10.86v160.53c0 3.62.07 7.24.17 10.86a157.53 157.53 0 0 0 2.07 23.64 80.2 80.2 0 0 0 7.41 22.49 75.64 75.64 0 0 0 33.06 33.05 79.63 79.63 0 0 0 22.47 7.4 156.37 156.37 0 0 0 23.65 2.08c3.62.1 7.24.14 10.86.17h160.58c3.62 0 7.24-.07 10.86-.17a156.37 156.37 0 0 0 23.65-2.08 79.63 79.63 0 0 0 22.47-7.4 75.64 75.64 0 0 0 33.06-33.05 80.2 80.2 0 0 0 7.41-22.49 157.53 157.53 0 0 0 2.07-23.64c.1-3.62.14-7.24.17-10.86v-12.9Z" transform="translate(-108 -108)" style="fill:url(#a);fill-rule:evenodd"/><path d="M362.5 163c-.87.07-8.6 1.45-9.53 1.64L246 186.22a15.08 15.08 0 0 0-6.67 3 10.88 10.88 0 0 0-3.6 7 24.39 24.39 0 0 0-.24 3.62v133.88c0 3.12-.25 6.17-2.37 8.76s-4.74 3.37-7.8 4l-7 1.41c-8.84 1.78-14.59 3-19.8 5a31.18 31.18 0 0 0-11.68 7.5 28.5 28.5 0 0 0 1.42 40.21 27 27 0 0 0 13 6.66c5.33 1.07 11 .69 19.3-1a39.43 39.43 0 0 0 12.44-4.59 31.51 31.51 0 0 0 9.85-9.11 33.45 33.45 0 0 0 5.24-12.35 62.1 62.1 0 0 0 1.2-13.26V250.79c0-6.22 1.76-7.86 6.78-9.07 0 0 88.94-17.94 93.08-18.75 5.8-1.11 8.52.54 8.52 6.61v79.29c0 3.14 0 6.31-2.16 8.92s-4.75 3.37-7.81 4l-7 1.41c-8.84 1.78-14.6 3-19.81 5a31.08 31.08 0 0 0-11.68 7.51 28 28 0 0 0 1.42 40.2 26.94 26.94 0 0 0 13 6.59c5.33 1.08 11 .7 19.31-1a39.4 39.4 0 0 0 12.5-4.55 31.4 31.4 0 0 0 9.85-9.11 33.47 33.47 0 0 0 5.25-12.35 62.45 62.45 0 0 0 1-13.26V172.46c0-6.16-3.25-9.96-9.04-9.46Z" transform="translate(-108 -108)" style="fill:#fff;fill-rule:evenodd"/></svg>